<svg xmlns="http://www.w3.org/2000/svg" viewBox="0 0 64 64">
  <rect width="64" height="64" rx="14" fill="#1f6feb"/>
  <path d="M13 39 l4.2-11 a5 5 0 0 1 4.7-3.3 h20.2 a5 5 0 0 1 4.7 3.3 L51 39 v6.5 a2.2 2.2 0 0 1-2.2 2.2 h-2.8 a4.5 4.5 0 0 1-9 0 H27 a4.5 4.5 0 0 1-9 0 h-2.8 A2.2 2.2 0 0 1 13 45.5 z" fill="#fff"/>
  <circle cx="22.5" cy="45.5" r="3.4" fill="#1f6feb"/>
  <circle cx="41.5" cy="45.5" r="3.4" fill="#1f6feb"/>
  <path d="M44 20 l-12 0 0 -4 -7 7 7 7 0 -4 12 0 z" fill="#7ee2a6"/>
</svg>
